<?xml version="1.0" encoding="UTF-8"?>
<svg version="1.1" xmlns="http://www.w3.org/2000/svg" width="32" height="32">
<path d="M0 0 C10.56 0 21.12 0 32 0 C32 10.56 32 21.12 32 32 C21.44 32 10.88 32 0 32 C0 21.44 0 10.88 0 0 Z " fill="#88746E" transform="translate(0,0)"/>
<path d="M0 0 C10.56 0 21.12 0 32 0 C32 7 32 7 30.25 9.21484375 C29.5075 9.78332031 28.765 10.35179687 28 10.9375 C27.2575 11.52402344 26.515 12.11054688 25.75 12.71484375 C25.1725 13.13894531 24.595 13.56304687 24 14 C22 13 22 13 21 10 C18.50240018 8.30117552 18.50240018 8.30117552 16 7 C15.67 8.32 15.34 9.64 15 11 C12.69 11.33 10.38 11.66 8 12 C8 10.68 8 9.36 8 8 C5.54300129 5.63075125 3.34097385 4.59660247 0 4 C0 2.68 0 1.36 0 0 Z " fill="#171313" transform="translate(0,0)"/>
<path d="M0 0 C3.91402949 1.26941497 5.79072873 2.51167694 8 6 C8.49371094 5.566875 8.98742188 5.13375 9.49609375 4.6875 C10.13675781 4.130625 10.77742188 3.57375 11.4375 3 C12.07558594 2.443125 12.71367187 1.88625 13.37109375 1.3125 C15 0 15 0 16 0 C16 8.25 16 16.5 16 25 C13.36 25 10.72 25 8 25 C5.97441119 21.65060119 5.78261013 19.13037449 5.875 15.25 C5.89304687 14.26515625 5.91109375 13.2803125 5.9296875 12.265625 C5.95289063 11.51796875 5.97609375 10.7703125 6 10 C4.35 9.67 2.7 9.34 1 9 C1 9.66 1 10.32 1 11 C-1.31 10.67 -3.62 10.34 -6 10 C-6 9.01 -6 8.02 -6 7 C-3.03 7.495 -3.03 7.495 0 8 C0 7.34 0 6.68 0 6 C-0.66 5.67 -1.32 5.34 -2 5 C-1.34 4.67 -0.68 4.34 0 4 C0 2.68 0 1.36 0 0 Z " fill="#B2B9BF" transform="translate(16,7)"/>
<path d="M0 0 C0.886875 0.309375 1.77375 0.61875 2.6875 0.9375 C6.54548036 2.1749654 10.07983381 2.94479003 14.125 3.1875 C17 4 17 4 18.875 6.9375 C20 10 20 10 20 12 C13.4 12 6.8 12 0 12 C0 8.04 0 4.08 0 0 Z " fill="#C1BEBD" transform="translate(0,20)"/>
<path d="M0 0 C1.1875 2.75 1.1875 2.75 2 6 C0.625 8.375 0.625 8.375 -1 10 C-0.34 10.33 0.32 10.66 1 11 C0.01 11.66 -0.98 12.32 -2 13 C-2.33 13.66 -2.66 14.32 -3 15 C-3.66 14.67 -4.32 14.34 -5 14 C-5 9.71 -5 5.42 -5 1 C-2 0 -2 0 0 0 Z " fill="#667E93" transform="translate(5,6)"/>
<path d="M0 0 C4.82360189 -0.19294408 8.49646738 0.24252386 13 2 C11.75023244 5.65316671 11.32901247 6.78065836 8 9 C6.84775972 8.07038578 5.70340824 7.1309875 4.5625 6.1875 C3.60537109 5.40439453 3.60537109 5.40439453 2.62890625 4.60546875 C1 3 1 3 0 0 Z " fill="#322723" transform="translate(14,2)"/>
<path d="M0 0 C4.03174806 0.27489191 5.56894631 0.53491576 8.375 3.5625 C8.91125 4.366875 9.4475 5.17125 10 6 C9.34 6 8.68 6 8 6 C8 6.66 8 7.32 8 8 C10.64 7.34 13.28 6.68 16 6 C16 7.66666667 16 9.33333333 16 11 C15.01 11.33 14.02 11.66 13 12 C13 11.34 13 10.68 13 10 C9.97580475 10.58803797 6.98241547 11.22678118 4 12 C4.350625 11.0925 4.70125 10.185 5.0625 9.25 C5.96468779 6.12241564 6.13381507 4.94791919 5 2 C4.34 2 3.68 2 3 2 C2.67 2.66 2.34 3.32 2 4 C1.34 3.67 0.68 3.34 0 3 C0 2.01 0 1.02 0 0 Z " fill="#545F6B" transform="translate(0,4)"/>
<path d="M0 0 C1.65 0 3.3 0 5 0 C5.5 3.0625 5.5 3.0625 5 7 C2.61176729 9.71294856 -0.09251712 11.86481726 -3 14 C-3.66 13.67 -4.32 13.34 -5 13 C-3.79618552 10.50638429 -2.54571278 8.31856917 -1 6 C-0.60986284 4.0103005 -0.26797351 2.00980131 0 0 Z " fill="#2F2424" transform="translate(27,0)"/>
<path d="M0 0 C0.66 0.33 1.32 0.66 2 1 C2 2.98 2 4.96 2 7 C1.34 7 0.68 7 0 7 C0 7.66 0 8.32 0 9 C-1.65 9.33 -3.3 9.66 -5 10 C-5.66 8.35 -6.32 6.7 -7 5 C-4.88437775 2.67281553 -2.94982021 1.14186589 0 0 Z " fill="#938279" transform="translate(9,13)"/>
<path d="M0 0 C2.97 0.99 5.94 1.98 9 3 C9 3.66 9 4.32 9 5 C6.69723426 7.21747812 5.47519908 7.96760006 2.25 8.1875 C1.5075 8.125625 0.765 8.06375 0 8 C0 5.36 0 2.72 0 0 Z " fill="#BFBBBA" transform="translate(0,20)"/>
<path d="M0 0 C-1.15173355 2.46800047 -2.04783565 4.04783565 -4 6 C-7.125 6.125 -7.125 6.125 -10 6 C-10 4.68 -10 3.36 -10 2 C-6.38026598 0.68373308 -3.90432869 0 0 0 Z " fill="#7F7979" transform="translate(10,26)"/>
<path d="M0 0 C0.99 0.33 1.98 0.66 3 1 C3 2.65 3 4.3 3 6 C0.36 6 -2.28 6 -5 6 C-5.33 4.68 -5.66 3.36 -6 2 C-4.7934375 1.7834375 -4.7934375 1.7834375 -3.5625 1.5625 C-1.07896294 1.25864751 -1.07896294 1.25864751 0 0 Z " fill="#AAB3BA" transform="translate(29,26)"/>
<path d="M0 0 C2.375 0.6875 2.375 0.6875 5 2 C6.3125 4.625 6.3125 4.625 7 7 C4.69 7.33 2.38 7.66 0 8 C0 7.34 0 6.68 0 6 C-0.66 5.67 -1.32 5.34 -2 5 C-1.34 4.67 -0.68 4.34 0 4 C0 2.68 0 1.36 0 0 Z " fill="#99877D" transform="translate(16,7)"/>
<path d="M0 0 C0.56203125 0.17402344 1.1240625 0.34804687 1.703125 0.52734375 C4.24556755 1.05053346 6.18452337 0.90204838 8.75 0.5625 C9.54921875 0.46066406 10.3484375 0.35882813 11.171875 0.25390625 C11.77515625 0.17011719 12.3784375 0.08632812 13 0 C13.33 0.99 13.66 1.98 14 3 C11.69 2.67 9.38 2.34 7 2 C7 2.66 7 3.32 7 4 C4.69 3.67 2.38 3.34 0 3 C0 2.01 0 1.02 0 0 Z " fill="#CBBFBA" transform="translate(10,14)"/>
<path d="M0 0 C0 1.98 0 3.96 0 6 C-0.99 6 -1.98 6 -3 6 C-2.67 6.66 -2.34 7.32 -2 8 C-3.32 7.67 -4.64 7.34 -6 7 C-6 7.66 -6 8.32 -6 9 C-6.99 8.67 -7.98 8.34 -9 8 C-8.04578192 6.85073734 -7.08647955 5.70569459 -6.125 4.5625 C-5.59132813 3.92441406 -5.05765625 3.28632813 -4.5078125 2.62890625 C-2.07434053 0 -2.07434053 0 0 0 Z " fill="#84909A" transform="translate(32,7)"/>
<path d="M0 0 C1.65 0 3.3 0 5 0 C5.66 2.64 6.32 5.28 7 8 C5.68 8 4.36 8 3 8 C0 2.25 0 2.25 0 0 Z " fill="#827A7A" transform="translate(17,24)"/>
<path d="M0 0 C1.65 0 3.3 0 5 0 C5 1.65 5 3.3 5 5 C4.278125 4.814375 3.55625 4.62875 2.8125 4.4375 C-0.12826973 3.98004693 -2.14103058 4.26483643 -5 5 C-5.66 3.68 -6.32 2.36 -7 1 C-4.69 1.33 -2.38 1.66 0 2 C0 1.34 0 0.68 0 0 Z " fill="#5C3D3B" transform="translate(17,16)"/>
<path d="M0 0 C0.70125 0.144375 1.4025 0.28875 2.125 0.4375 C5.02468599 1.07094338 5.02468599 1.07094338 8.125 1.1875 C11 2 11 2 12.875 4.9375 C14 8 14 8 14 10 C13.01 10 12.02 10 11 10 C10.67 7.69 10.34 5.38 10 3 C8.35 3 6.7 3 5 3 C4.67 3.99 4.34 4.98 4 6 C4 5.34 4 4.68 4 4 C3.01 3.67 2.02 3.34 1 3 C1.66 3 2.32 3 3 3 C3 2.34 3 1.68 3 1 C2.01 0.67 1.02 0.34 0 0 Z " fill="#A6A1A0" transform="translate(6,22)"/>
<path d="M0 0 C4.62 0 9.24 0 14 0 C14 1.32 14 2.64 14 4 C12.41532272 3.71572583 10.8322943 3.42225182 9.25 3.125 C7.92742188 2.88136719 7.92742188 2.88136719 6.578125 2.6328125 C4 2 4 2 0 0 Z " fill="#0D0507" transform="translate(13,0)"/>
<path d="M0 0 C1.32 0.66 2.64 1.32 4 2 C3.67 3.32 3.34 4.64 3 6 C0.69 6.33 -1.62 6.66 -4 7 C-4 6.34 -4 5.68 -4 5 C-3.34 4.67 -2.68 4.34 -2 4 C-0.86649466 1.98330173 -0.86649466 1.98330173 0 0 Z " fill="#313235" transform="translate(12,5)"/>
<path d="M0 0 C0.66 1.32 1.32 2.64 2 4 C-0.31 5.98 -2.62 7.96 -5 10 C-5 5.77471908 -4.74375671 4.95481492 -2 2 C-1.34 2 -0.68 2 0 2 C0 1.34 0 0.68 0 0 Z " fill="#211C18" transform="translate(28,4)"/>
<path d="M0 0 C2 2 2 2 2.1953125 3.9453125 C2.13020833 5.96354167 2.06510417 7.98177083 2 10 C0.68 9.67 -0.64 9.34 -2 9 C-2 7.68 -2 6.36 -2 5 C-1.34 5 -0.68 5 0 5 C0 3.35 0 1.7 0 0 Z " fill="#C8C9C9" transform="translate(25,19)"/>
<path d="M0 0 C0.99 0 1.98 0 3 0 C3.33 1.32 3.66 2.64 4 4 C3.01 4 2.02 4 1 4 C0.67 4.99 0.34 5.98 0 7 C-1.65 7 -3.3 7 -5 7 C-3.625 5 -3.625 5 -2 3 C-1.34 3 -0.68 3 0 3 C0 2.01 0 1.02 0 0 Z " fill="#B7B3B3" transform="translate(11,25)"/>
<path d="M0 0 C0.33 0 0.66 0 1 0 C1 1.98 1 3.96 1 6 C-0.875 6.625 -0.875 6.625 -3 7 C-3.66 6.34 -4.32 5.68 -5 5 C-5 4.01 -5 3.02 -5 2 C-3.68 2.33 -2.36 2.66 -1 3 C-0.67 2.01 -0.34 1.02 0 0 Z " fill="#7C6963" transform="translate(22,17)"/>
<path d="M0 0 C0.66 0 1.32 0 2 0 C2 1.32 2 2.64 2 4 C3.32 4.33 4.64 4.66 6 5 C5.01 5.66 4.02 6.32 3 7 C2.67 7.66 2.34 8.32 2 9 C1.34 8.67 0.68 8.34 0 8 C0 5.36 0 2.72 0 0 Z " fill="#959294" transform="translate(0,12)"/>
<path d="M0 0 C2.97 0.33 5.94 0.66 9 1 C8.67 1.99 8.34 2.98 8 4 C5.64828869 3.40138258 3.3140622 2.73075648 1 2 C0.67 1.34 0.34 0.68 0 0 Z " fill="#625A53" transform="translate(18,3)"/>
<path d="M0 0 C1.27875 -0.061875 2.5575 -0.12375 3.875 -0.1875 C4.95394531 -0.23970703 4.95394531 -0.23970703 6.0546875 -0.29296875 C6.69664062 -0.19628906 7.33859375 -0.09960938 8 0 C8.66 0.99 9.32 1.98 10 3 C9.67 3.99 9.34 4.98 9 6 C7.88625 5.071875 7.88625 5.071875 6.75 4.125 C4.51198812 2.39562719 2.56260013 1.13893339 0 0 Z " fill="#262B2E" transform="translate(0,3)"/>
<path d="M0 0 C8.57142857 -0.28571429 8.57142857 -0.28571429 12 2 C10.5 3.1875 10.5 3.1875 8 4 C5.21175762 3.27101296 2.62334908 2.1843275 0 1 C0 0.67 0 0.34 0 0 Z " fill="#241A17" transform="translate(5,0)"/>
<path d="M0 0 C-0.33 1.98 -0.66 3.96 -1 6 C-1.99 5.67 -2.98 5.34 -4 5 C-4.6875 2.9375 -4.6875 2.9375 -5 1 C-3 0 -3 0 0 0 Z " fill="#5C5A5F" transform="translate(7,17)"/>
<path d="M0 0 C2.875 0.3125 2.875 0.3125 6 1 C6.66 1.99 7.32 2.98 8 4 C7.01 4 6.02 4 5 4 C5 3.34 5 2.68 5 2 C4.34 2 3.68 2 3 2 C2.67 2.66 2.34 3.32 2 4 C1.34 3.67 0.68 3.34 0 3 C0 2.01 0 1.02 0 0 Z " fill="#425362" transform="translate(0,4)"/>
<path d="M0 0 C0.66 0.66 1.32 1.32 2 2 C1.67 2.99 1.34 3.98 1 5 C0.01 5.33 -0.98 5.66 -2 6 C-2 5.34 -2 4.68 -2 4 C-2.66 4 -3.32 4 -4 4 C-4 3.34 -4 2.68 -4 2 C-2.68 1.34 -1.36 0.68 0 0 Z " fill="#77675C" transform="translate(15,10)"/>
<path d="M0 0 C2.475 0.495 2.475 0.495 5 1 C3.68 2.32 2.36 3.64 1 5 C0.67 3.35 0.34 1.7 0 0 Z " fill="#463C37" transform="translate(21,6)"/>
</svg>
